# xmcd CD database file
#
# Track frame offsets:
#	150
#	23466
#	43636
#	59985
#	83839
#	104375
#	129290
#	155476
#	164690
#
# Disc length: 2414 seconds
#
# Revision: 2
# Processed by: cddbd v1.5PL3 Copyright (c) Steve Scherf et al.
# Submitted via: CDex 1.50
#
DISCID=71096c09
DTITLE=Ultra Kinetic Orchestra - Ultra Kinetic Orchestra
DYEAR=2004
DGENRE=Jazz
TTITLE0=Adam West
TTITLE1=This Appliance
TTITLE2=Amorphous
TTITLE3=Degas
TTITLE4=On The Trail
TTITLE5=Cab Ride Home
TTITLE6=Ithaca
TTITLE7=CJ
TTITLE8=Roadside Mexi
EXTD=YEAR: 2004
EXTT0=
EXTT1=
EXTT2=
EXTT3=
EXTT4=
EXTT5=
EXTT6=
EXTT7=
EXTT8=
PLAYORDER=
